<svg id="SvgjsSvg1015" width="288" height="288" xmlns="http://www.w3.org/2000/svg" version="1.1" xmlns:xlink="http://www.w3.org/1999/xlink" xmlns:svgjs="http://svgjs.com/svgjs"><defs id="SvgjsDefs1016"></defs><g id="SvgjsG1017"><svg xmlns="http://www.w3.org/2000/svg" enable-background="new 0 0 48 48" viewBox="0 0 48 48" width="288" height="288"><rect width="44" height="28" x="2" y="11" fill="#f48498" class="color0d47a1 svgShape"></rect><path fill="#f48498" d="M24,41L24,41c-1.657,0-3-1.343-3-3v-1h6v1C27,39.657,25.657,41,24,41z" class="color0d47a1 svgShape"></path><path fill="#b0bec5" d="M44,9c-16.959,0-20,1-20,1S20.967,9,4,9v28c16.946,0,20,1,20,1s2.99-1,20-1V9z" class="colorb0bec5 svgShape"></path><path fill="#eceff1" d="M42,7C26.98,7,24,9,24,9v28c0,0,3.02-2,18-2V7z" class="coloreceff1 svgShape"></path><path fill="#dbe2e5" d="M6,7c15.02,0,18,2,18,2v28c0,0-3.02-2-18-2V7z" class="colordbe2e5 svgShape"></path></svg></g></svg>